<svg xmlns="http://www.w3.org/2000/svg" viewBox="0 0 155 183">
  <title>nginx</title>
  <path d="M1.5153687,127.9695744c.8008272,1.3890643,1.9298284,2.472657,3.2322044,3.2074385l66.1219075,38.1755109.0020629-.0020629c1.2899922.7595475,2.7905137,1.1950498,4.394225,1.1950498,1.6037192,0,3.1063035-.4355023,4.3942329-1.1950498l66.1239753-38.1755109c1.3023694-.7347814,2.4272388-1.8163113,3.2301298-3.2053756.802891-1.3890604,1.1764723-2.9060925,1.1620323-4.4024843V47.2160645l-.0020629-.0020629c.0123771-1.494325-.3612041-3.01342-1.1620323-4.4024843-.802891-1.3890643-1.9318862-2.4705981-3.2321927-3.2074385L79.6558756,1.428568v-.0020629c-1.2879294-.7595554-2.7884508-1.1950537-4.39217-1.1950537-1.6016485,0-3.1021699.4354984-4.3900993,1.1950537v.0020629L4.7517008,39.6040789c-1.3023758.7368404-2.4313769,1.8183741-3.2342681,3.2074385-.8008271,1.3890643-1.1744089,2.9081593-1.1620249,4.4024843l-.0020641.0020629v76.3510257c-.0144479,1.4963918.3591339,3.0134239,1.159961,4.4024843" style="fill:#009639"/>
  <path d="M54.0940071,114.4556145c0,4.6955749-3.8059967,8.5036305-8.5036305,8.5036305-4.6955709,0-8.5036266-3.8080557-8.5036266-8.5036305l.0020629.0020668.0082554-58.3736997c0-4.5221928,3.9958816-8.2621389,9.6553328-8.2621389,4.0516063,0,8.7286036,1.6346778,11.5913566,5.1826682l2.5696623,3.075345,35.5253539,42.5140152v-42.2725275h-.0041257c0-4.6955749,3.8080517-8.5036266,8.5056895-8.5036266,4.6955749,0,8.5015638,3.8080517,8.5015638,8.5036266h-.0020629l-.0082514,58.3695661c0,4.5221967-3.9979445,8.2621428-9.6553368,8.2621428-4.053673,0-8.7286036-1.6326149-11.5913566-5.1826721l-38.0950163-45.5893602v42.276661l.0041296-.0020668Z" style="fill:#fff"/>
</svg>
